<svg xmlns="http://www.w3.org/2000/svg" width="1600" height="900" viewBox="0 0 1600 900">
  <defs>
    <radialGradient id="glow"><stop stop-color="#d8bd78" stop-opacity=".68"/><stop offset="1" stop-color="#151c1d" stop-opacity="0"/></radialGradient>
    <linearGradient id="wall" x2="0" y2="1"><stop stop-color="#20292a"/><stop offset="1" stop-color="#090d0e"/></linearGradient>
    <linearGradient id="wood" x2="1"><stop stop-color="#171310"/><stop offset=".5" stop-color="#30251a"/><stop offset="1" stop-color="#0d0b09"/></linearGradient>
    <filter id="noise"><feTurbulence baseFrequency=".6" numOctaves="3" stitchTiles="stitch"/><feColorMatrix values=".08 0 0 0 0 0 .08 0 0 0 0 0 .08 0 0 0 0 0 .35 0"/><feBlend in="SourceGraphic" mode="screen"/></filter>
  </defs>
  <rect width="1600" height="900" fill="url(#wall)"/>
  <rect width="1600" height="900" filter="url(#noise)" opacity=".5"/>
  <ellipse cx="805" cy="270" rx="540" ry="410" fill="url(#glow)"/>
  <path d="M0 760L270 610h1060l270 150v140H0z" fill="#090908"/>
  <path d="M0 760h1600M160 700h1280M340 640h920M800 620v280M520 630L420 900M1080 630l100 270" stroke="#463a29" stroke-width="3" opacity=".6"/>
  <rect x="630" y="150" width="340" height="520" rx="6" fill="url(#wood)" stroke="#51442e" stroke-width="9"/>
  <path d="M680 190h240v480H680zM800 190v480" fill="none" stroke="#2b241b" stroke-width="7"/>
  <circle cx="885" cy="440" r="13" fill="#bda15d"/><circle cx="885" cy="440" r="5" fill="#19140d"/>
  <rect x="165" y="275" width="285" height="215" fill="#090c0c" stroke="#65543a" stroke-width="16"/>
  <path d="M185 295h245v175H185z" fill="#314443"/><path d="M307 295v175M185 382h245" stroke="#171f1f" stroke-width="8"/>
  <ellipse cx="307" cy="395" rx="230" ry="170" fill="url(#glow)" opacity=".35"/>
  <rect x="1110" y="515" width="320" height="42" fill="#251d14"/><path d="M1150 557v210M1390 557v210" stroke="#17120e" stroke-width="22"/>
  <rect x="1175" y="445" width="105" height="70" rx="4" fill="#655336" stroke="#b49b66" stroke-width="5"/>
  <circle cx="1226" cy="480" r="11" fill="#1b1711"/><path d="M1226 490v16" stroke="#1b1711" stroke-width="7"/>
  <path d="M105 850c280-80 470-50 695 20 260-90 475-100 700-22" fill="none" stroke="#181b19" stroke-width="50" opacity=".8"/>
</svg>

